<svg width="20" height="19" viewBox="0 0 20 19" fill="none" xmlns="http://www.w3.org/2000/svg">
<path d="M18.4603 13.7356V16.2882C18.4613 16.5252 18.4128 16.7598 18.3178 16.9769C18.2229 17.194 18.0837 17.3889 17.909 17.5491C17.7344 17.7093 17.5283 17.8313 17.3038 17.9072C17.0793 17.9831 16.8414 18.0113 16.6054 17.99C13.9872 17.7055 11.4721 16.8108 9.26241 15.3778C7.20655 14.0714 5.46355 12.3284 4.15717 10.2726C2.71918 8.05283 1.82429 5.52556 1.54499 2.89551C1.52373 2.66022 1.55169 2.42307 1.6271 2.19918C1.70251 1.97528 1.82371 1.76954 1.98299 1.59506C2.14227 1.42057 2.33614 1.28116 2.55225 1.1857C2.76836 1.09025 3.00198 1.04083 3.23823 1.04061H5.79085C6.20378 1.03655 6.6041 1.18277 6.9172 1.45203C7.2303 1.7213 7.4348 2.09522 7.49259 2.50411C7.60033 3.32101 7.80014 4.12309 8.0882 4.89506C8.20268 5.19961 8.22746 5.53059 8.1596 5.84879C8.09174 6.16699 7.93408 6.45906 7.70531 6.69041L6.6247 7.77101C7.83597 9.90121 9.59974 11.665 11.7299 12.8763L12.8105 11.7956C13.0419 11.5669 13.334 11.4092 13.6522 11.3414C13.9704 11.2735 14.3013 11.2983 14.6059 11.4127C15.3779 11.7008 16.1799 11.9006 16.9968 12.0084C17.4102 12.0667 17.7876 12.2749 18.0575 12.5933C18.3273 12.9118 18.4707 13.3183 18.4603 13.7356Z" stroke="white" stroke-width="1.25" stroke-linecap="round" stroke-linejoin="round"/>
</svg>
