<svg width="92" height="93" viewBox="0 0 92 93" fill="none" xmlns="http://www.w3.org/2000/svg">
<path d="M91.999 46.2329C91.999 71.638 71.4041 92.2329 45.999 92.2329C20.5939 92.2329 -0.000976562 71.638 -0.000976562 46.2329C-0.000976562 20.8278 20.5939 0.23291 45.999 0.23291C71.4041 0.23291 91.999 20.8278 91.999 46.2329Z" fill="#BA0C2F"/>
<path fill-rule="evenodd" clip-rule="evenodd" d="M45.999 91.2329C70.8518 91.2329 90.999 71.0857 90.999 46.2329C90.999 21.3801 70.8518 1.23291 45.999 1.23291C21.1462 1.23291 0.999023 21.3801 0.999023 46.2329C0.999023 71.0857 21.1462 91.2329 45.999 91.2329ZM45.999 92.2329C71.4041 92.2329 91.999 71.638 91.999 46.2329C91.999 20.8278 71.4041 0.23291 45.999 0.23291C20.5939 0.23291 -0.000976562 20.8278 -0.000976562 46.2329C-0.000976562 71.638 20.5939 92.2329 45.999 92.2329Z" fill="#BA0C2F"/>
<path d="M61.0957 46.233L37.0042 60.1423L37.0042 32.3237L61.0957 46.233Z" fill="white"/>
</svg>
