<svg width="28" height="17" viewBox="0 0 28 17" fill="none" xmlns="http://www.w3.org/2000/svg">
<path d="M27.3523 14.3391C27.3205 14.2705 27.2908 14.2136 27.2632 14.168C26.807 13.3464 25.9353 12.3379 24.6485 11.1424L24.6213 11.115L24.6077 11.1016L24.594 11.0878H24.5802C23.9961 10.5311 23.6263 10.1568 23.4715 9.96511C23.1881 9.60004 23.1246 9.2305 23.2795 8.85608C23.3889 8.57319 23.7999 7.97576 24.5115 7.06299C24.8859 6.57924 25.1823 6.19154 25.4013 5.89944C26.9802 3.80029 27.6648 2.45891 27.4548 1.87477L27.3732 1.73826C27.3184 1.65608 27.1769 1.5809 26.9491 1.51233C26.7206 1.44391 26.4287 1.43259 26.0727 1.47819L22.1302 1.50543C22.0664 1.48279 21.9752 1.4849 21.8563 1.51233C21.7377 1.53976 21.6783 1.55352 21.6783 1.55352L21.6097 1.5878L21.5552 1.62899C21.5096 1.65622 21.4594 1.70412 21.4046 1.77259C21.3501 1.84082 21.3045 1.92089 21.268 2.01214C20.8388 3.11642 20.3508 4.14312 19.8031 5.09219C19.4654 5.65812 19.1553 6.14858 18.872 6.56385C18.5892 6.97898 18.3519 7.28484 18.1604 7.4809C17.9686 7.67715 17.7955 7.83437 17.6401 7.95313C17.4849 8.07195 17.3664 8.12215 17.2843 8.10378C17.2021 8.08542 17.1247 8.0672 17.0514 8.04898C16.9237 7.9668 16.821 7.85503 16.7435 7.71359C16.6658 7.57214 16.6134 7.39411 16.586 7.17964C16.5588 6.96503 16.5427 6.78043 16.5381 6.62522C16.5338 6.47021 16.5358 6.25094 16.545 5.96805C16.5545 5.68502 16.5588 5.49352 16.5588 5.39311C16.5588 5.04626 16.5656 4.66982 16.5791 4.26371C16.5929 3.85759 16.6041 3.53581 16.6135 3.29876C16.6228 3.06147 16.6271 2.81042 16.6271 2.54575C16.6271 2.28107 16.611 2.07351 16.5791 1.92286C16.5477 1.7724 16.4994 1.62635 16.4358 1.48476C16.3718 1.34331 16.2781 1.2339 16.1551 1.15622C16.032 1.07864 15.8788 1.01708 15.6966 0.971337C15.2128 0.861873 14.5968 0.802658 13.8483 0.793452C12.1509 0.775232 11.0603 0.88484 10.5766 1.12213C10.3849 1.22239 10.2115 1.35938 10.0564 1.53266C9.89212 1.73351 9.8692 1.84312 9.98782 1.86115C10.5355 1.94319 10.9232 2.13944 11.1514 2.44971L11.2336 2.61412C11.2976 2.73274 11.3614 2.94275 11.4253 3.24386C11.4892 3.54497 11.5303 3.87807 11.5485 4.24295C11.594 4.90927 11.594 5.47966 11.5485 5.95415C11.5028 6.42883 11.4596 6.79836 11.4184 7.06303C11.3772 7.3277 11.3157 7.54217 11.2336 7.70639C11.1514 7.87066 11.0967 7.97107 11.0692 8.00751C11.0419 8.04395 11.019 8.06691 11.0009 8.07593C10.8823 8.12138 10.7589 8.14454 10.6312 8.14454C10.5034 8.14454 10.3483 8.08058 10.1658 7.95275C9.98336 7.82492 9.79402 7.64934 9.59777 7.42571C9.40152 7.20203 9.18019 6.88946 8.9337 6.48795C8.68739 6.08644 8.43183 5.6119 8.16716 5.06434L7.94818 4.66723C7.81129 4.41177 7.62429 4.03979 7.387 3.55164C7.14956 3.06329 6.9397 2.59091 6.75726 2.13459C6.68433 1.94295 6.57477 1.79704 6.42877 1.69664L6.36025 1.65545C6.3147 1.61901 6.24158 1.58032 6.14127 1.53908C6.04082 1.4979 5.93601 1.46836 5.8264 1.45019L2.07551 1.47742C1.69222 1.47742 1.43215 1.56426 1.29521 1.73768L1.24041 1.81972C1.21303 1.86542 1.19922 1.93839 1.19922 2.03884C1.19922 2.13925 1.2266 2.26247 1.2814 2.40838C1.82896 3.69529 2.42442 4.93641 3.06779 6.13194C3.71115 7.32746 4.27022 8.29049 4.74466 9.02016C5.21919 9.75035 5.70289 10.4395 6.19574 11.0873C6.6886 11.7353 7.01483 12.1506 7.17445 12.333C7.33426 12.5158 7.45979 12.6524 7.55103 12.7437L7.89333 13.0722C8.11235 13.2912 8.43399 13.5536 8.85837 13.8593C9.28285 14.1651 9.75278 14.4662 10.2684 14.7631C10.7841 15.0594 11.3841 15.3013 12.0687 15.4883C12.7531 15.6756 13.4193 15.7507 14.0673 15.7145H15.6416C15.9609 15.6869 16.2028 15.5865 16.3672 15.4132L16.4217 15.3446C16.4583 15.2901 16.4926 15.2055 16.5242 15.0916C16.5563 14.9776 16.5722 14.8519 16.5722 14.7152C16.5628 14.3228 16.5927 13.9692 16.661 13.6544C16.7292 13.3397 16.807 13.1024 16.894 12.9426C16.9809 12.7829 17.079 12.6482 17.1882 12.5389C17.2976 12.4295 17.3755 12.3632 17.4213 12.3403C17.4667 12.3174 17.503 12.3018 17.5304 12.2924C17.7494 12.2195 18.0072 12.2901 18.3041 12.5048C18.6007 12.7193 18.879 12.9841 19.1392 13.2988C19.3994 13.6138 19.7119 13.9673 20.0769 14.3596C20.4421 14.7521 20.7614 15.0439 21.0351 15.2358L21.3088 15.4001C21.4916 15.5097 21.7289 15.6101 22.0209 15.7013C22.3125 15.7925 22.568 15.8153 22.7873 15.7697L26.2917 15.7151C26.6383 15.7151 26.908 15.6577 27.0993 15.5438C27.291 15.4297 27.4049 15.3041 27.4416 15.1674C27.4782 15.0305 27.4802 14.8753 27.4486 14.7017C27.4161 14.5286 27.3841 14.4075 27.3523 14.3391Z" stroke="white"/>
</svg>
