<svg width="213" height="64" viewBox="0 0 213 64" fill="none" xmlns="http://www.w3.org/2000/svg">
<path d="M79.4063 25.8597C78.693 25.8602 77.981 25.7996 77.2776 25.6786L76.0901 25.4723V1.25283L77.3614 1.13711L77.8098 1.09183C78.3329 1.02543 78.8595 0.991828 79.3866 0.991211C86.4279 1.0063 92.1438 6.25369 92.1438 13.4229C92.1438 20.5922 86.4279 25.8597 79.4063 25.8597ZM79.4063 2.01755H79.1057H78.9332V24.8183H79.426C84.8758 24.8183 89.3154 20.0991 89.3154 13.4129C89.3154 6.72661 84.8561 2.01251 79.4063 2.01251V2.01755Z" fill="white"/>
<path d="M116.643 25.7136V1.13185H119.94C121.081 1.12959 122.201 1.44697 123.177 2.04945C124.154 2.65192 124.95 3.51641 125.479 4.54882C126.008 5.58122 126.25 6.74199 126.177 7.90478C126.105 9.06758 125.722 10.1878 125.069 11.1436L124.936 11.3399L125.158 11.4153C128.375 12.5272 130.539 14.8867 130.539 18.3481C130.539 22.8056 126.991 25.7136 122.625 25.7136H116.643ZM122.625 13.0806C121.501 13.1561 120.418 13.5365 119.486 14.1824V24.7124H122.625C125.419 24.7124 127.696 22.6144 127.696 18.9015C127.696 15.1886 125.419 13.0806 122.625 13.0806ZM119.486 12.8643C120.797 12.3209 123.34 10.4544 123.34 7.50116C123.34 4.54793 121.812 2.14812 119.94 2.14812H119.486V12.8643Z" fill="white"/>
<path d="M38.3161 25.7136V1.13184H50.4673L50.7777 2.87761L41.1593 2.1632V13.7849L47.4221 13.4277V15.1282L41.1593 14.771V24.7275L52.0046 24.0131L51.6942 25.7136H38.3161Z" fill="white"/>
<path d="M0 25.7538V1.13184H3.55271C8.97293 1.13184 13.4077 4.93531 13.4077 10.4896C13.4077 13.8856 11.7372 16.3206 8.93351 18.1972L8.7512 18.3179L16.2213 25.7136H12.1462L5.91297 19.5405H5.81935C5.07882 19.7243 4.31973 19.8188 3.55764 19.8222H2.84315V25.7538H0ZM2.84315 18.8109H3.55271C7.42078 18.8109 10.5694 15.586 10.5694 10.4896C10.5694 5.39314 7.42078 2.1632 3.55271 2.1632H2.84315V18.8109Z" fill="white"/>
<path d="M169.658 25.7137L162.341 5.79074L155.624 25.7137H153.855L163.41 0L172.826 25.7137H169.658Z" fill="white"/>
<path d="M196.774 25.7538V1.13184H200.327C205.747 1.13184 210.181 4.93531 210.181 10.4896C210.181 13.8856 208.511 16.3206 205.707 18.1972L205.525 18.3179L212.995 25.7136H208.925L202.682 19.5405H202.588C201.848 19.7243 201.089 19.8188 200.327 19.8222H199.617V25.7538H196.774ZM199.617 18.816H200.327C204.195 18.816 207.343 15.586 207.343 10.4896C207.343 5.39314 204.195 2.15817 200.327 2.15817H199.617V18.816Z" fill="white"/>
<path d="M27.0519 41.0786H30.0576V41.9138H27.9388V43.5489H29.4663V44.384H27.9388V46.2455H27.0519V41.0786Z" fill="white"/>
<path d="M42.125 40.9275C42.6567 40.9196 43.1788 41.0733 43.6248 41.3691C44.0707 41.6649 44.4204 42.0895 44.6294 42.5889C44.8383 43.0882 44.8971 43.6397 44.7981 44.1733C44.6992 44.7068 44.4471 45.1982 44.0738 45.585C43.7005 45.9718 43.223 46.2365 42.702 46.3454C42.181 46.4543 41.64 46.4025 41.1479 46.1966C40.6558 45.9907 40.2348 45.64 39.9385 45.1891C39.6422 44.7382 39.4839 44.2074 39.4838 43.6644C39.4812 43.3077 39.5475 42.9539 39.6788 42.6232C39.8101 42.2926 40.004 41.9916 40.2492 41.7375C40.4945 41.4833 40.7864 41.281 41.1082 41.142C41.43 41.0031 41.7755 40.9302 42.125 40.9275ZM42.125 41.7627C41.7507 41.7344 41.3769 41.8218 41.052 42.0136C40.7272 42.2055 40.4665 42.4927 40.3039 42.838C40.1413 43.1833 40.0844 43.5706 40.1405 43.9494C40.1966 44.3282 40.3632 44.681 40.6185 44.9617C40.8738 45.2425 41.2061 45.4382 41.5719 45.5233C41.9378 45.6085 42.3202 45.5791 42.6695 45.4391C43.0188 45.2991 43.3187 45.0549 43.53 44.7383C43.7414 44.4218 43.8545 44.0476 43.8545 43.6644C43.868 43.1787 43.6944 42.707 43.371 42.3505C43.0477 41.994 42.6003 41.7812 42.125 41.7577V41.7627Z" fill="white"/>
<path d="M57.3509 44.1576L58.5039 46.2455H57.5184L56.4788 44.3488H55.4933V46.2455H54.6014V41.0786H56.3161C57.4298 41.0786 58.1738 41.8383 58.1738 42.7137C58.1646 42.9988 58.0806 43.2761 57.9307 43.5168C57.7807 43.7575 57.5703 43.9527 57.3213 44.0821L57.3509 44.1576ZM56.3654 43.5086C56.4796 43.5294 56.5968 43.5244 56.7089 43.4939C56.821 43.4634 56.9251 43.4082 57.014 43.3322C57.1029 43.2562 57.1744 43.1612 57.2235 43.0539C57.2726 42.9466 57.298 42.8296 57.298 42.7112C57.298 42.5928 57.2726 42.4758 57.2235 42.3685C57.1744 42.2612 57.1029 42.1662 57.014 42.0902C56.9251 42.0142 56.821 41.959 56.7089 41.9285C56.5968 41.898 56.4796 41.893 56.3654 41.9138H55.5425V43.5086H56.3654Z" fill="white"/>
<path d="M79.6083 43.2668H79.5344V46.2301H78.6376V40.9274H78.7903L81.057 43.7699L83.3285 40.9224H83.4763V46.2452H82.5845V43.2668H82.5106L81.057 45.0931L79.6083 43.2668Z" fill="white"/>
<path d="M93.6763 41.0786H96.6327V41.9138H94.5829V43.2067H96.0612V44.0419H94.5829V45.4103H96.7066V46.2455H93.6911L93.6763 41.0786Z" fill="white"/>
<path d="M109.459 44.1174V41.0988H110.375V46.3965H110.228L107.547 43.2068H107.473V46.2254H106.581V40.9277H106.729L109.39 44.1174H109.459Z" fill="white"/>
<path d="M131.16 47.0455V47.8807H129.524V40.7769H131.16V41.612H130.415V47.0455H131.16Z" fill="white"/>
<path d="M137.969 40.9275C138.501 40.9196 139.023 41.0733 139.469 41.3691C139.915 41.6649 140.265 42.0895 140.474 42.5889C140.683 43.0882 140.742 43.6397 140.643 44.1733C140.544 44.7068 140.292 45.1982 139.918 45.585C139.545 45.9718 139.067 46.2365 138.546 46.3454C138.025 46.4543 137.484 46.4025 136.992 46.1966C136.5 45.9907 136.079 45.64 135.783 45.1891C135.487 44.7382 135.328 44.2074 135.328 43.6644C135.324 42.9443 135.6 42.2519 136.095 41.7389C136.59 41.226 137.264 40.9342 137.969 40.9275ZM137.969 41.7577C137.595 41.7263 137.22 41.811 136.893 42.0008C136.566 42.1905 136.303 42.4765 136.139 42.8213C135.974 43.1661 135.914 43.5537 135.969 43.9334C136.023 44.3131 136.188 44.6672 136.443 44.9495C136.697 45.2318 137.029 45.4291 137.395 45.5157C137.762 45.6022 138.145 45.574 138.495 45.4346C138.845 45.2952 139.146 45.0513 139.358 44.7345C139.57 44.4178 139.684 44.0431 139.684 43.6594C139.696 43.177 139.524 42.7088 139.204 42.3538C138.884 41.9988 138.441 41.785 137.969 41.7577Z" fill="white"/>
<path d="M153.382 44.1174V41.0988H154.274V46.3965H154.126L151.446 43.2068H151.372V46.2254H150.48V40.9277H150.628L153.309 44.1174H153.382Z" fill="white"/>
<path d="M167.337 45.4103V46.2455H164.474V41.0786H165.366V45.4103H167.337Z" fill="white"/>
<path d="M176.197 41.0786H177.182L178.246 43.2671H178.32L179.36 41.0786H180.346L178.71 44.4243V46.2455H177.818V44.4243L176.197 41.0786Z" fill="white"/>
<path d="M185.056 47.0455V41.612H184.312V40.7769H185.948V47.8807H184.312V47.0455H185.056Z" fill="white"/>
<path d="M86.5757 59.492C86.8852 59.3711 87.1823 59.2194 87.4627 59.0392C87.5415 58.9788 87.5612 58.9688 87.5859 58.9688C87.6232 58.9755 87.6587 58.9902 87.6901 59.0119C87.7215 59.0336 87.7481 59.0617 87.7682 59.0945V59.5976C87.7682 59.6116 87.772 59.6254 87.7792 59.6373C87.7864 59.6492 87.7968 59.6589 87.809 59.6651C87.8213 59.6714 87.8351 59.674 87.8487 59.6728C87.8624 59.6715 87.8755 59.6664 87.8864 59.658C88.3486 59.3115 88.8965 59.1041 89.4682 59.0593C89.7053 59.0486 89.9411 59.1015 90.152 59.2128C90.3629 59.324 90.5417 59.4896 90.6705 59.6932C90.6907 59.7105 90.7148 59.7222 90.7406 59.7275C90.7664 59.7328 90.7931 59.7314 90.8183 59.7234C91.0868 59.5294 91.3721 59.361 91.6707 59.2203C91.9181 59.1061 92.1878 59.051 92.4591 59.0593C93.4693 59.0593 93.8487 60.0202 93.8832 60.8252C93.9177 61.6302 93.962 62.8376 93.962 63.1445C93.962 63.3458 94.2035 63.4816 94.3956 63.552C94.5878 63.6225 94.6617 63.6728 94.6617 63.7885C94.6617 63.9042 94.5139 63.9746 94.4104 63.9746C94.1443 63.9746 93.7896 63.9746 93.5284 63.9746C93.2673 63.9746 92.942 63.9746 92.676 63.9746C92.4936 63.9746 92.3557 63.869 92.3557 63.7784C92.3557 63.6879 92.4148 63.6023 92.6316 63.542C92.7436 63.521 92.8436 63.4574 92.9113 63.364C92.979 63.2705 93.0094 63.1543 92.9962 63.0389C92.9962 62.4754 92.9962 61.5597 92.9962 61.0566C93.0237 60.7559 92.9601 60.4539 92.8139 60.1913C92.7157 60.0621 92.588 59.9592 92.4421 59.8917C92.2961 59.8242 92.1362 59.7941 91.9763 59.8039C91.6278 59.8121 91.2878 59.9146 90.9908 60.1007C90.9192 60.2076 90.8798 60.3335 90.8774 60.463C90.8774 62.2993 90.8774 62.732 90.9119 62.9785C90.9098 63.0969 90.9487 63.2123 91.0217 63.3043C91.0947 63.3963 91.1972 63.4591 91.311 63.4816C91.5426 63.5621 91.6116 63.6325 91.6116 63.7633C91.6116 63.8941 91.4736 63.9595 91.3357 63.9595C91.04 63.9595 90.6705 63.9595 90.3748 63.9595C90.0792 63.9595 89.8131 63.9595 89.5569 63.9595C89.3006 63.9595 89.2169 63.8438 89.2169 63.7482C89.2169 63.6527 89.3203 63.5873 89.5027 63.5168C89.8131 63.4011 89.9511 63.3307 89.9609 62.8728L89.9954 60.624C89.9772 60.4448 89.9182 60.2725 89.8229 60.1209C89.7145 59.9935 89.578 59.8943 89.4246 59.8314C89.2713 59.7684 89.1055 59.7435 88.9409 59.7586C88.5883 59.7531 88.2432 59.8624 87.9554 60.0706C87.9007 60.1672 87.8576 60.2702 87.8273 60.3774C87.8273 62.4351 87.8273 62.7068 87.8519 63.0087C87.8545 63.1221 87.892 63.2319 87.9593 63.3222C88.0265 63.4126 88.12 63.4789 88.2264 63.5118C88.4482 63.6275 88.4827 63.6879 88.4827 63.7684C88.4827 63.8489 88.3644 63.9646 88.1969 63.9646C87.9209 63.9646 87.5415 63.9344 87.2114 63.9344C86.9502 63.9344 86.7186 63.9897 86.4328 63.9897C86.147 63.9897 86.1125 63.8992 86.1125 63.7935C86.1125 63.6879 86.216 63.6174 86.3885 63.547C86.832 63.3558 86.8812 63.2653 86.8812 62.8879C86.8812 62.5106 86.9256 61.5094 86.9256 60.4328C86.9202 60.3469 86.8946 60.2635 86.8508 60.19C86.807 60.1164 86.7465 60.0547 86.6743 60.0102C86.4673 59.8442 86.423 59.7989 86.423 59.7637C86.4379 59.6565 86.4926 59.5592 86.5757 59.492Z" fill="white"/>
<path d="M97.9976 59.492C98.3049 59.3698 98.6002 59.2182 98.8796 59.0392C98.9584 58.9788 98.983 58.9688 99.0028 58.9688C99.0409 58.9749 99.0774 58.9893 99.1097 59.0109C99.142 59.0326 99.1694 59.0611 99.19 59.0945V59.5976C99.1887 59.6116 99.1915 59.6256 99.198 59.6379C99.2046 59.6502 99.2146 59.6603 99.2268 59.6668C99.2389 59.6733 99.2527 59.6759 99.2664 59.6743C99.28 59.6728 99.2929 59.6671 99.3033 59.658C99.7655 59.3115 100.313 59.1041 100.885 59.0593C101.122 59.0486 101.358 59.1015 101.569 59.2128C101.78 59.324 101.959 59.4896 102.087 59.6932C102.109 59.7105 102.133 59.7223 102.16 59.7275C102.187 59.7328 102.214 59.7314 102.24 59.7234C102.506 59.5282 102.79 59.3597 103.088 59.2203C103.335 59.1061 103.605 59.051 103.876 59.0593C104.886 59.0593 105.266 60.0202 105.3 60.8252C105.335 61.6302 105.379 62.8376 105.379 63.1445C105.379 63.3458 105.62 63.4816 105.817 63.552C106.015 63.6225 106.079 63.6728 106.079 63.7885C106.079 63.9042 105.931 63.9746 105.827 63.9746C105.561 63.9746 105.206 63.9746 104.945 63.9746C104.684 63.9746 104.359 63.9746 104.093 63.9746C103.911 63.9746 103.773 63.869 103.773 63.7784C103.773 63.6879 103.832 63.6023 104.048 63.542C104.161 63.5211 104.261 63.4576 104.33 63.3643C104.398 63.2711 104.43 63.1548 104.418 63.0389C104.418 62.4754 104.418 61.5597 104.418 61.0566C104.446 60.7559 104.382 60.4539 104.236 60.1913C104.137 60.0621 104.01 59.9592 103.864 59.8917C103.718 59.8242 103.558 59.7941 103.398 59.8039C103.041 59.8077 102.692 59.9103 102.388 60.1007C102.316 60.2076 102.277 60.3335 102.275 60.463C102.275 62.2993 102.275 62.732 102.309 62.9785C102.307 63.0976 102.347 63.2136 102.421 63.3057C102.495 63.3978 102.598 63.4602 102.713 63.4816C102.94 63.5621 103.009 63.6325 103.009 63.7633C103.009 63.8941 102.871 63.9595 102.733 63.9595C102.437 63.9595 102.068 63.9595 101.747 63.9595C101.427 63.9595 101.186 63.9595 100.934 63.9595C100.683 63.9595 100.589 63.8438 100.589 63.7482C100.589 63.6527 100.693 63.5873 100.875 63.5168C101.186 63.4011 101.324 63.3307 101.333 62.8728L101.368 60.624C101.35 60.4448 101.291 60.2725 101.195 60.1209C101.087 59.9935 100.95 59.8943 100.797 59.8314C100.644 59.7684 100.478 59.7435 100.313 59.7586C99.9609 59.7531 99.6157 59.8624 99.328 60.0706C99.2732 60.1672 99.2302 60.2702 99.1999 60.3774C99.1999 62.4351 99.1999 62.7068 99.1999 63.0087C99.2019 63.123 99.2399 63.2336 99.3082 63.3242C99.3765 63.4148 99.4716 63.4805 99.5793 63.5118C99.7961 63.6275 99.8306 63.6879 99.8306 63.7684C99.8306 63.8489 99.7172 63.9646 99.5448 63.9646C99.2688 63.9646 98.8894 63.9344 98.5593 63.9344C98.2981 63.9344 98.0419 63.9897 97.7807 63.9897C97.5196 63.9897 97.4604 63.8992 97.4604 63.7935C97.4604 63.6879 97.5639 63.6174 97.7364 63.547C98.1799 63.3558 98.2291 63.2653 98.2291 62.8879C98.2291 62.5106 98.2735 61.5094 98.2735 60.4328C98.2681 60.3469 98.2425 60.2635 98.1987 60.19C98.1549 60.1164 98.0944 60.0547 98.0222 60.0102C97.8152 59.8442 97.7709 59.7989 97.7709 59.7637C97.7863 59.7039 97.8147 59.6485 97.854 59.6015C97.8932 59.5545 97.9423 59.517 97.9976 59.492Z" fill="white"/>
<path d="M109.39 59.1401C109.528 59.1401 109.952 59.1401 110.375 59.1753C110.706 59.1753 110.937 59.1753 111.154 59.1753C111.243 59.1753 111.371 59.2457 111.371 59.3514C111.371 59.4571 111.257 59.5376 111.154 59.5728C111.05 59.608 110.972 59.6533 111.06 59.8646C111.23 60.2101 111.417 60.546 111.622 60.8708C111.628 60.8791 111.636 60.8859 111.645 60.8905C111.654 60.8952 111.664 60.8976 111.674 60.8976C111.684 60.8976 111.694 60.8952 111.703 60.8905C111.712 60.8859 111.72 60.8791 111.725 60.8708C111.785 60.7802 112.218 60.1212 112.302 59.9249C112.386 59.7287 112.366 59.6533 112.061 59.5627C112.009 59.5516 111.963 59.5233 111.929 59.4823C111.895 59.4413 111.875 59.3899 111.873 59.3363C111.873 59.2307 112.001 59.1753 112.164 59.1753H112.563C112.898 59.1753 113.238 59.125 113.662 59.125C113.79 59.125 113.953 59.1854 113.953 59.3162C113.953 59.447 113.849 59.4772 113.642 59.5476C113.309 59.6255 113.011 59.815 112.795 60.0859C112.553 60.3677 112.302 60.7299 111.932 61.2682C111.908 61.3034 111.932 61.3638 111.932 61.4242C112.061 61.6204 112.75 62.8027 112.874 63.0039C112.955 63.1403 113.066 63.2562 113.197 63.3433C113.328 63.4303 113.477 63.4863 113.632 63.5071C113.825 63.5423 113.943 63.663 113.943 63.7536C113.943 63.8441 113.756 63.9397 113.608 63.9397C113.46 63.9397 112.977 63.9095 112.529 63.9095C112.243 63.9095 111.844 63.9095 111.73 63.9095C111.533 63.9095 111.454 63.829 111.454 63.7334C111.454 63.6379 111.568 63.5372 111.829 63.4668C111.947 63.4064 112.016 63.2807 111.957 63.1851C111.898 63.0895 111.578 62.4707 111.326 62.0631C111.326 62.0631 111.248 62.0028 111.198 62.0631C110.962 62.4043 110.752 62.7643 110.572 63.1398C110.523 63.2807 110.533 63.3863 110.868 63.5272C110.927 63.5523 111.031 63.6429 111.031 63.6932C111.031 63.8441 110.858 63.9146 110.774 63.9146H110.03C109.848 63.9146 109.331 63.9699 109.217 63.9699C109.02 63.9699 108.907 63.8794 108.907 63.7938C108.907 63.7083 109.01 63.5976 109.252 63.5121C109.56 63.4147 109.834 63.2276 110.04 62.9738C110.373 62.5887 110.676 62.1783 110.947 61.7462C110.967 61.7152 110.979 61.6801 110.983 61.6434C110.988 61.6068 110.984 61.5697 110.972 61.5349C110.868 61.3135 110.203 60.1564 110.09 59.9903C110.001 59.8669 109.889 59.7627 109.76 59.6841C109.632 59.6055 109.489 59.5539 109.341 59.5325C109.139 59.4872 109.035 59.4269 109.02 59.286C109.006 59.1451 109.193 59.1401 109.39 59.1401Z" fill="white"/>
<path d="M117.062 59.1401C117.2 59.1401 117.624 59.1401 118.047 59.1753C118.383 59.1753 118.609 59.1753 118.826 59.1753C118.92 59.1753 119.048 59.2457 119.048 59.3514C119.048 59.4571 118.929 59.5376 118.826 59.5728C118.723 59.608 118.644 59.6533 118.737 59.8646C118.905 60.2112 119.092 60.5472 119.299 60.8708C119.305 60.8791 119.313 60.8859 119.322 60.8905C119.331 60.8952 119.341 60.8976 119.351 60.8976C119.361 60.8976 119.371 60.8952 119.38 60.8905C119.389 60.8859 119.397 60.8791 119.403 60.8708C119.457 60.7802 119.871 60.1212 119.974 59.9249C120.078 59.7287 120.043 59.6533 119.733 59.5627C119.609 59.5124 119.56 59.4571 119.55 59.3363C119.54 59.2156 119.678 59.1753 119.836 59.1753H120.23C120.56 59.1753 120.905 59.125 121.329 59.125C121.457 59.125 121.615 59.1854 121.615 59.3162C121.615 59.447 121.511 59.4772 121.305 59.5476C120.972 59.6265 120.674 59.8158 120.457 60.0859C120.216 60.3677 119.964 60.7299 119.6 61.2682C119.588 61.2925 119.582 61.3192 119.582 61.3462C119.582 61.3733 119.588 61.3999 119.6 61.4242C119.728 61.6204 120.413 62.8027 120.541 63.0039C120.622 63.1397 120.732 63.2552 120.862 63.3423C120.993 63.4293 121.14 63.4856 121.295 63.5071C121.492 63.5423 121.605 63.663 121.605 63.7536C121.605 63.8441 121.423 63.9397 121.275 63.9397C121.127 63.9397 120.644 63.9095 120.196 63.9095C119.91 63.9095 119.506 63.9095 119.393 63.9095C119.196 63.9095 119.117 63.829 119.117 63.7334C119.117 63.6379 119.23 63.5372 119.496 63.4668C119.609 63.4064 119.678 63.2807 119.624 63.1851C119.57 63.0895 119.245 62.4707 118.994 62.0631C118.994 62.0631 118.91 62.0028 118.865 62.0631C118.63 62.4057 118.419 62.7656 118.235 63.1398C118.19 63.2807 118.2 63.3863 118.53 63.5272C118.589 63.5523 118.693 63.6429 118.693 63.6932C118.693 63.8441 118.521 63.9146 118.442 63.9146H117.698C117.51 63.9146 116.998 63.9699 116.88 63.9699C116.761 63.9699 116.574 63.8794 116.574 63.7938C116.574 63.7083 116.678 63.5976 116.914 63.5121C117.224 63.4151 117.5 63.228 117.707 62.9738C118.037 62.5861 118.34 62.176 118.614 61.7462C118.631 61.7135 118.639 61.6773 118.639 61.6405C118.639 61.6038 118.631 61.5676 118.614 61.5349C118.511 61.3135 117.85 60.1564 117.732 59.9903C117.644 59.8674 117.533 59.7636 117.405 59.685C117.277 59.6064 117.136 59.5546 116.988 59.5325C116.781 59.4872 116.678 59.4269 116.668 59.286C116.658 59.1451 116.855 59.1401 117.062 59.1401Z" fill="white"/>
<path d="M124.793 59.4218C125.192 59.2486 125.609 59.1204 126.035 59.0394C126.079 59.0394 126.148 59.1903 126.148 59.2256V61.3788C126.148 62.8882 126.183 63.1347 126.193 63.2403C126.203 63.346 126.252 63.4466 126.685 63.5673C126.843 63.6126 126.956 63.7183 126.956 63.834C126.956 63.9497 126.774 63.9849 126.626 63.9849C126.385 63.9849 125.917 63.9547 125.641 63.9547C125.059 63.9547 124.843 63.9849 124.68 63.9849C124.517 63.9849 124.335 63.9195 124.335 63.8139C124.335 63.7082 124.448 63.6227 124.611 63.5774C125.104 63.4466 125.138 63.356 125.183 62.8731C125.183 62.6316 125.232 61.8316 125.232 61.1675C125.232 60.9311 125.232 60.3223 125.232 60.2519C125.232 60.1815 125.118 60.0305 124.788 59.8092C124.752 59.7813 124.721 59.7458 124.699 59.7051C124.677 59.6643 124.664 59.6192 124.66 59.5727C124.665 59.5073 124.724 59.4469 124.793 59.4218ZM126.001 56.7654C126.116 56.9078 126.183 57.0841 126.193 57.2685C126.196 57.4382 126.134 57.6026 126.021 57.7272C125.908 57.8519 125.753 57.9273 125.587 57.9376C125.491 57.9297 125.398 57.902 125.313 57.8562C125.229 57.8103 125.154 57.7473 125.094 57.671C125.021 57.5683 124.982 57.4453 124.981 57.3188C124.976 57.2293 124.99 57.1399 125.022 57.0564C125.054 56.9729 125.102 56.8972 125.165 56.8341C125.227 56.771 125.302 56.722 125.384 56.6902C125.466 56.6584 125.553 56.6446 125.641 56.6497C125.771 56.6406 125.899 56.682 126.001 56.7654Z" fill="white"/>
</svg>
