<svg width="22" height="22" viewBox="0 0 22 22" fill="none" xmlns="http://www.w3.org/2000/svg">
<path d="M16.3354 1.33301H6.37613C3.62595 1.33301 1.39648 3.56247 1.39648 6.31265V16.2719C1.39648 19.0221 3.62595 21.2516 6.37613 21.2516H16.3354C19.0856 21.2516 21.3151 19.0221 21.3151 16.2719V6.31265C21.3151 3.56247 19.0856 1.33301 16.3354 1.33301Z" stroke="white" stroke-linecap="round" stroke-linejoin="round"/>
<path d="M15.7468 10.6042C15.8824 11.5188 15.7262 12.4528 15.3003 13.2735C14.8745 14.0942 14.2008 14.7597 13.3749 15.1754C12.549 15.591 11.6131 15.7357 10.7003 15.5888C9.78745 15.4419 8.94418 15.011 8.2904 14.3572C7.63663 13.7034 7.20565 12.8601 7.05876 11.9473C6.91187 11.0345 7.05656 10.0986 7.47224 9.27271C7.88792 8.44685 8.55343 7.77308 9.3741 7.34725C10.1948 6.92142 11.1288 6.7652 12.0434 6.90082C12.9763 7.03916 13.84 7.47387 14.5069 8.14074C15.1737 8.80762 15.6084 9.67129 15.7468 10.6042Z" stroke="white" stroke-linecap="round" stroke-linejoin="round"/>
<path d="M17.5059 6.11328H17.5161" stroke="white" stroke-width="2" stroke-linecap="round" stroke-linejoin="round"/>
</svg>
